<mxfile host="65bd71144e">
    <diagram id="Ad8xNgjMwblyBEEjSpns" name="Page-1">
        <mxGraphModel dx="977" dy="534" grid="1" gridSize="10" guides="1" tooltips="1" connect="1" arrows="1" fold="1" page="1" pageScale="1" pageWidth="827" pageHeight="1169" math="0" shadow="0">
            <root>
                <mxCell id="0"/>
                <mxCell id="1" parent="0"/>
                <mxCell id="118" style="edgeStyle=none;html=1;endArrow=classic;endFill=1;" edge="1" parent="1" source="86" target="88">
                    <mxGeometry relative="1" as="geometry">
                        <mxPoint x="150" y="160" as="targetPoint"/>
                    </mxGeometry>
                </mxCell>
                <mxCell id="86" value="Visitor" style="shape=umlActor;verticalLabelPosition=bottom;verticalAlign=top;html=1;outlineConnect=0;" vertex="1" parent="1">
                    <mxGeometry x="90" y="525" width="30" height="60" as="geometry"/>
                </mxCell>
                <mxCell id="101" style="edgeStyle=none;html=1;entryX=0.933;entryY=0.2;entryDx=0;entryDy=0;entryPerimeter=0;endArrow=none;endFill=0;" edge="1" parent="1" source="87" target="97">
                    <mxGeometry relative="1" as="geometry"/>
                </mxCell>
                <mxCell id="102" style="edgeStyle=none;html=1;entryX=0.5;entryY=0;entryDx=0;entryDy=0;endArrow=none;endFill=0;" edge="1" parent="1" source="87" target="96">
                    <mxGeometry relative="1" as="geometry">
                        <Array as="points">
                            <mxPoint x="530" y="580"/>
                        </Array>
                    </mxGeometry>
                </mxCell>
                <mxCell id="113" style="edgeStyle=none;html=1;endArrow=none;endFill=0;" edge="1" parent="1" source="87" target="109">
                    <mxGeometry relative="1" as="geometry">
                        <mxPoint x="470" y="280" as="targetPoint"/>
                        <Array as="points"/>
                    </mxGeometry>
                </mxCell>
                <mxCell id="87" value="Admin" style="shape=umlActor;verticalLabelPosition=bottom;verticalAlign=top;html=1;outlineConnect=0;" vertex="1" parent="1">
                    <mxGeometry x="880" y="120" width="30" height="60" as="geometry"/>
                </mxCell>
                <mxCell id="104" style="edgeStyle=none;html=1;entryX=0;entryY=0.5;entryDx=0;entryDy=0;endArrow=none;endFill=0;" edge="1" parent="1" source="88" target="97">
                    <mxGeometry relative="1" as="geometry">
                        <Array as="points"/>
                    </mxGeometry>
                </mxCell>
                <mxCell id="105" style="edgeStyle=none;html=1;entryX=0;entryY=0.5;entryDx=0;entryDy=0;endArrow=none;endFill=0;" edge="1" parent="1" source="88" target="96">
                    <mxGeometry relative="1" as="geometry">
                        <Array as="points">
                            <mxPoint x="300" y="670"/>
                        </Array>
                    </mxGeometry>
                </mxCell>
                <mxCell id="114" style="edgeStyle=none;html=1;entryX=0;entryY=0.5;entryDx=0;entryDy=0;endArrow=none;endFill=0;" edge="1" parent="1" source="88" target="103">
                    <mxGeometry relative="1" as="geometry"/>
                </mxCell>
                <mxCell id="116" style="edgeStyle=none;html=1;entryX=0;entryY=0.5;entryDx=0;entryDy=0;endArrow=none;endFill=0;" edge="1" parent="1" source="88" target="109">
                    <mxGeometry relative="1" as="geometry"/>
                </mxCell>
                <mxCell id="88" value="User" style="shape=umlActor;verticalLabelPosition=bottom;verticalAlign=top;html=1;outlineConnect=0;" vertex="1" parent="1">
                    <mxGeometry x="190" y="400" width="30" height="60" as="geometry"/>
                </mxCell>
                <mxCell id="90" value="" style="rounded=0;whiteSpace=wrap;html=1;fillColor=none;" vertex="1" parent="1">
                    <mxGeometry x="280" y="120" width="510" height="710" as="geometry"/>
                </mxCell>
                <mxCell id="111" style="edgeStyle=none;html=1;entryX=1;entryY=0.5;entryDx=0;entryDy=0;endArrow=none;endFill=0;" edge="1" parent="1" source="92" target="109">
                    <mxGeometry relative="1" as="geometry">
                        <Array as="points">
                            <mxPoint x="720" y="380"/>
                        </Array>
                    </mxGeometry>
                </mxCell>
                <mxCell id="92" value="Investigator" style="shape=umlActor;verticalLabelPosition=bottom;verticalAlign=top;html=1;outlineConnect=0;" vertex="1" parent="1">
                    <mxGeometry x="880" y="730" width="30" height="60" as="geometry"/>
                </mxCell>
                <mxCell id="95" value="&lt;pre class=&quot;tw-data-text tw-text-large tw-ta&quot; id=&quot;tw-target-text&quot; style=&quot;text-align: left&quot; dir=&quot;ltr&quot;&gt;&lt;span class=&quot;Y2IQFc&quot; lang=&quot;en&quot;&gt;popular science app&lt;/span&gt;&lt;/pre&gt;" style="text;html=1;strokeColor=none;fillColor=none;align=center;verticalAlign=middle;whiteSpace=wrap;rounded=0;" vertex="1" parent="1">
                    <mxGeometry x="445" y="120" width="180" height="30" as="geometry"/>
                </mxCell>
                <mxCell id="122" style="edgeStyle=none;html=1;entryX=0;entryY=0.5;entryDx=0;entryDy=0;dashed=1;endArrow=classic;endFill=1;" edge="1" parent="1" source="96" target="121">
                    <mxGeometry relative="1" as="geometry"/>
                </mxCell>
                <mxCell id="123" value="&amp;lt;&amp;lt;Include&amp;gt;&amp;gt;" style="edgeLabel;html=1;align=center;verticalAlign=middle;resizable=0;points=[];" vertex="1" connectable="0" parent="122">
                    <mxGeometry x="0.3273" relative="1" as="geometry">
                        <mxPoint x="-8" as="offset"/>
                    </mxGeometry>
                </mxCell>
                <mxCell id="125" style="edgeStyle=none;html=1;entryX=0.033;entryY=0.65;entryDx=0;entryDy=0;entryPerimeter=0;dashed=1;endArrow=classic;endFill=1;" edge="1" parent="1" source="96" target="124">
                    <mxGeometry relative="1" as="geometry">
                        <Array as="points"/>
                    </mxGeometry>
                </mxCell>
                <mxCell id="127" value="&amp;lt;&amp;lt;Include&amp;gt;&amp;gt;" style="edgeLabel;html=1;align=center;verticalAlign=middle;resizable=0;points=[];" vertex="1" connectable="0" parent="125">
                    <mxGeometry x="0.3577" y="2" relative="1" as="geometry">
                        <mxPoint x="26" y="14" as="offset"/>
                    </mxGeometry>
                </mxCell>
                <mxCell id="96" value="Watch the news" style="ellipse;whiteSpace=wrap;html=1;fillColor=none;" vertex="1" parent="1">
                    <mxGeometry x="340" y="750" width="120" height="30" as="geometry"/>
                </mxCell>
                <mxCell id="129" style="edgeStyle=none;html=1;dashed=1;endArrow=classic;endFill=1;" edge="1" parent="1" source="97" target="128">
                    <mxGeometry relative="1" as="geometry">
                        <Array as="points">
                            <mxPoint x="360" y="500"/>
                        </Array>
                    </mxGeometry>
                </mxCell>
                <mxCell id="131" value="&amp;lt;&amp;lt;Include&amp;gt;&amp;gt;" style="edgeLabel;html=1;align=center;verticalAlign=middle;resizable=0;points=[];" vertex="1" connectable="0" parent="129">
                    <mxGeometry x="-0.3563" relative="1" as="geometry">
                        <mxPoint x="-45" y="10" as="offset"/>
                    </mxGeometry>
                </mxCell>
                <mxCell id="97" value="&lt;div class=&quot;QmZWSe&quot;&gt;&lt;div class=&quot;DHcWmd&quot;&gt;&lt;/div&gt;&lt;/div&gt;&lt;div class=&quot;oSioSc&quot;&gt;&lt;div id=&quot;tw-target&quot;&gt;&lt;div id=&quot;kAz1tf&quot; class=&quot;g9WsWb&quot;&gt;&lt;div class=&quot;tw-ta-container F0azHf tw-nfl&quot; id=&quot;tw-target-text-container&quot; tabindex=&quot;0&quot;&gt;&lt;pre class=&quot;tw-data-text tw-text-large tw-ta&quot; id=&quot;tw-target-text&quot; style=&quot;text-align: left&quot; dir=&quot;ltr&quot;&gt;&lt;span class=&quot;Y2IQFc&quot; lang=&quot;en&quot;&gt;See home page&lt;/span&gt;&lt;/pre&gt;&lt;/div&gt;&lt;/div&gt;&lt;/div&gt;&lt;/div&gt;" style="ellipse;whiteSpace=wrap;html=1;fillColor=none;" vertex="1" parent="1">
                    <mxGeometry x="310" y="400" width="120" height="30" as="geometry"/>
                </mxCell>
                <mxCell id="133" style="edgeStyle=none;html=1;entryX=0;entryY=0.5;entryDx=0;entryDy=0;dashed=1;endArrow=classic;endFill=1;" edge="1" parent="1" source="103" target="132">
                    <mxGeometry relative="1" as="geometry"/>
                </mxCell>
                <mxCell id="134" value="&amp;lt;&amp;lt;Include&amp;gt;&amp;gt;" style="edgeLabel;html=1;align=center;verticalAlign=middle;resizable=0;points=[];" vertex="1" connectable="0" parent="133">
                    <mxGeometry x="-0.4553" y="1" relative="1" as="geometry">
                        <mxPoint as="offset"/>
                    </mxGeometry>
                </mxCell>
                <mxCell id="103" value="&lt;div class=&quot;QmZWSe&quot;&gt;&lt;div class=&quot;DHcWmd&quot;&gt;&lt;/div&gt;&lt;/div&gt;&lt;div class=&quot;oSioSc&quot;&gt;&lt;div id=&quot;tw-target&quot;&gt;&lt;div id=&quot;kAz1tf&quot; class=&quot;g9WsWb&quot;&gt;&lt;div class=&quot;tw-ta-container F0azHf tw-nfl&quot; id=&quot;tw-target-text-container&quot; tabindex=&quot;0&quot;&gt;&lt;pre class=&quot;tw-data-text tw-text-large tw-ta&quot; id=&quot;tw-target-text&quot; style=&quot;text-align: left&quot; dir=&quot;ltr&quot;&gt;Log in&lt;/pre&gt;&lt;/div&gt;&lt;/div&gt;&lt;/div&gt;&lt;/div&gt;" style="ellipse;whiteSpace=wrap;html=1;fillColor=none;" vertex="1" parent="1">
                    <mxGeometry x="300" y="200" width="120" height="40" as="geometry"/>
                </mxCell>
                <mxCell id="142" style="edgeStyle=none;html=1;entryX=0;entryY=0;entryDx=0;entryDy=0;dashed=1;endArrow=classic;endFill=1;" edge="1" parent="1" source="109" target="141">
                    <mxGeometry relative="1" as="geometry"/>
                </mxCell>
                <mxCell id="143" value="&amp;lt;&amp;lt;Include&amp;gt;&amp;gt;" style="edgeLabel;html=1;align=center;verticalAlign=middle;resizable=0;points=[];" vertex="1" connectable="0" parent="142">
                    <mxGeometry x="-0.1736" relative="1" as="geometry">
                        <mxPoint y="-1" as="offset"/>
                    </mxGeometry>
                </mxCell>
                <mxCell id="109" value="&lt;div class=&quot;QmZWSe&quot;&gt;&lt;div class=&quot;DHcWmd&quot;&gt;&lt;/div&gt;&lt;/div&gt;&lt;div class=&quot;oSioSc&quot;&gt;&lt;div id=&quot;tw-target&quot;&gt;&lt;div id=&quot;kAz1tf&quot; class=&quot;g9WsWb&quot;&gt;&lt;div class=&quot;tw-ta-container F0azHf tw-nfl&quot; id=&quot;tw-target-text-container&quot; tabindex=&quot;0&quot;&gt;&lt;pre class=&quot;tw-data-text tw-text-large tw-ta&quot; id=&quot;tw-target-text&quot; style=&quot;text-align: left&quot; dir=&quot;ltr&quot;&gt;&lt;pre class=&quot;tw-data-text tw-text-large tw-ta&quot; id=&quot;tw-target-text&quot; dir=&quot;ltr&quot;&gt;&lt;span style=&quot;color: rgba(0 , 0 , 0 , 0) ; font-size: 0px&quot;&gt;%3CmxGraphModel%3E%3Croot%3E%3CmxCell%20id%3D%220%22%2F%3E%3CmxCell%20id%3D%221%22%20parent%3D%220%22%2F%3E%3CmxCell%20id%3D%222%22%20value%3D%22%26lt%3Bdiv%20class%3D%26quot%3BQmZWSe%26quot%3B%26gt%3B%26lt%3Bdiv%20class%3D%26quot%3BDHcWmd%26quot%3B%26gt%3B%26lt%3B%2Fdiv%26gt%3B%26lt%3B%2Fdiv%26gt%3B%26lt%3Bdiv%20class%3D%26quot%3BoSioSc%26quot%3B%26gt%3B%26lt%3Bdiv%20id%3D%26quot%3Btw-target%26quot%3B%26gt%3B%26lt%3Bdiv%20id%3D%26quot%3BkAz1tf%26quot%3B%20class%3D%26quot%3Bg9WsWb%26quot%3B%26gt%3B%26lt%3Bdiv%20class%3D%26quot%3Btw-ta-container%20F0azHf%20tw-nfl%26quot%3B%20id%3D%26quot%3Btw-target-text-container%26quot%3B%20tabindex%3D%26quot%3B0%26quot%3B%26gt%3B%26lt%3Bpre%20class%3D%26quot%3Btw-data-text%20tw-text-large%20tw-ta%26quot%3B%20id%3D%26quot%3Btw-target-text%26quot%3B%20style%3D%26quot%3Btext-align%3A%20left%26quot%3B%20dir%3D%26quot%3Bltr%26quot%3B%26gt%3B%26lt%3Bpre%20class%3D%26quot%3Btw-data-text%20tw-text-large%20tw-ta%26quot%3B%20id%3D%26quot%3Btw-target-text%26quot%3B%20dir%3D%26quot%3Bltr%26quot%3B%26gt%3B%26lt%3Bspan%20class%3D%26quot%3BY2IQFc%26quot%3B%20lang%3D%26quot%3Ben%26quot%3B%26gt%3BComment%20news%26lt%3B%2Fspan%26gt%3B%26lt%3B%2Fpre%26gt%3B%26lt%3B%2Fpre%26gt%3B%26lt%3B%2Fdiv%26gt%3B%26lt%3B%2Fdiv%26gt%3B%26lt%3B%2Fdiv%26gt%3B%26lt%3B%2Fdiv%26gt%3B%22%20style%3D%22ellipse%3BwhiteSpace%3Dwrap%3Bhtml%3D1%3BfillColor%3Dnone%3B%22%20vertex%3D%221%22%20parent%3D%221%22%3E%3CmxGeometry%20x%3D%22354%22%20y%3D%22220%22%20width%3D%22120%22%20height%3D%2240%22%20as%3D%22geometry%22%2F%3E%3C%2FmxCell%3E%3C%2Froot%3E%3C%2FmxGraphModel%3E&lt;/span&gt;report incidents&lt;br&gt;&lt;/pre&gt;&lt;div class=&quot;QmZWSe&quot;&gt;&lt;div class=&quot;DHcWmd&quot;&gt;&lt;/div&gt;&lt;/div&gt;&lt;/pre&gt;&lt;/div&gt;&lt;/div&gt;&lt;/div&gt;&lt;/div&gt;" style="ellipse;whiteSpace=wrap;html=1;fillColor=none;" vertex="1" parent="1">
                    <mxGeometry x="335" y="310" width="120" height="40" as="geometry"/>
                </mxCell>
                <mxCell id="119" style="edgeStyle=none;html=1;entryX=1;entryY=0.5;entryDx=0;entryDy=0;endArrow=classic;endFill=1;dashed=1;" edge="1" parent="1" source="117" target="96">
                    <mxGeometry relative="1" as="geometry"/>
                </mxCell>
                <mxCell id="120" value="&amp;lt;&amp;lt;Extends&amp;gt;&amp;gt;" style="edgeLabel;html=1;align=center;verticalAlign=middle;resizable=0;points=[];" vertex="1" connectable="0" parent="119">
                    <mxGeometry x="-0.2372" y="1" relative="1" as="geometry">
                        <mxPoint as="offset"/>
                    </mxGeometry>
                </mxCell>
                <mxCell id="117" value="&lt;div class=&quot;QmZWSe&quot;&gt;&lt;div class=&quot;DHcWmd&quot;&gt;&lt;/div&gt;&lt;/div&gt;&lt;div class=&quot;oSioSc&quot;&gt;&lt;div id=&quot;tw-target&quot;&gt;&lt;div id=&quot;kAz1tf&quot; class=&quot;g9WsWb&quot;&gt;&lt;div class=&quot;tw-ta-container F0azHf tw-nfl&quot; id=&quot;tw-target-text-container&quot; tabindex=&quot;0&quot;&gt;&lt;pre class=&quot;tw-data-text tw-text-large tw-ta&quot; id=&quot;tw-target-text&quot; style=&quot;text-align: left&quot; dir=&quot;ltr&quot;&gt;&lt;pre class=&quot;tw-data-text tw-text-large tw-ta&quot; id=&quot;tw-target-text&quot; dir=&quot;ltr&quot;&gt;&lt;span class=&quot;Y2IQFc&quot; lang=&quot;en&quot;&gt;Comment news&lt;/span&gt;&lt;/pre&gt;&lt;/pre&gt;&lt;/div&gt;&lt;/div&gt;&lt;/div&gt;&lt;/div&gt;" style="ellipse;whiteSpace=wrap;html=1;fillColor=none;" vertex="1" parent="1">
                    <mxGeometry x="600" y="780" width="120" height="40" as="geometry"/>
                </mxCell>
                <mxCell id="121" value="&lt;pre class=&quot;tw-data-text tw-text-large tw-ta&quot; id=&quot;tw-target-text&quot; style=&quot;text-align: left&quot; dir=&quot;ltr&quot;&gt;&lt;span class=&quot;Y2IQFc&quot; lang=&quot;en&quot;&gt;check that the comment &lt;/span&gt;&lt;/pre&gt;&lt;pre class=&quot;tw-data-text tw-text-large tw-ta&quot; id=&quot;tw-target-text&quot; style=&quot;text-align: left&quot; dir=&quot;ltr&quot;&gt;passes a filter&lt;/pre&gt;" style="ellipse;whiteSpace=wrap;html=1;fillColor=none;" vertex="1" parent="1">
                    <mxGeometry x="570" y="630" width="200" height="60" as="geometry"/>
                </mxCell>
                <mxCell id="124" value="&lt;pre class=&quot;tw-data-text tw-text-large tw-ta&quot; id=&quot;tw-target-text&quot; dir=&quot;ltr&quot;&gt;&lt;div class=&quot;QmZWSe&quot;&gt;&lt;div class=&quot;DHcWmd&quot;&gt;&lt;/div&gt;&lt;/div&gt;&lt;div class=&quot;oSioSc&quot;&gt;&lt;div id=&quot;tw-target&quot;&gt;&lt;div id=&quot;kAz1tf&quot; class=&quot;g9WsWb&quot;&gt;&lt;div class=&quot;tw-ta-container F0azHf tw-nfl&quot; id=&quot;tw-target-text-container&quot; tabindex=&quot;0&quot;&gt;&lt;pre class=&quot;tw-data-text tw-text-large tw-ta&quot; id=&quot;tw-target-text&quot; dir=&quot;ltr&quot; style=&quot;text-align: right&quot;&gt;&lt;span class=&quot;Y2IQFc&quot; lang=&quot;en&quot;&gt;check that the news &lt;/span&gt;&lt;/pre&gt;&lt;pre class=&quot;tw-data-text tw-text-large tw-ta&quot; id=&quot;tw-target-text&quot; dir=&quot;ltr&quot; style=&quot;text-align: left&quot;&gt;&lt;span class=&quot;Y2IQFc&quot; lang=&quot;en&quot;&gt;has no errors&lt;/span&gt;&lt;/pre&gt;&lt;/div&gt;&lt;div class=&quot;tw-target-rmn tw-ta-container F0azHf tw-nfl&quot; id=&quot;tw-target-rmn-container&quot;&gt;&lt;pre class=&quot;tw-data-placeholder tw-text-small tw-ta&quot; id=&quot;tw-target-rmn&quot; dir=&quot;ltr&quot;&gt;&lt;span class=&quot;Y2IQFc&quot;&gt;&lt;/span&gt;&lt;/pre&gt;&lt;/div&gt;&lt;/div&gt;&lt;/div&gt;&lt;/div&gt;&lt;/pre&gt;" style="ellipse;whiteSpace=wrap;html=1;fillColor=none;" vertex="1" parent="1">
                    <mxGeometry x="550" y="554.5" width="200" height="60" as="geometry"/>
                </mxCell>
                <mxCell id="128" value="&lt;div class=&quot;QmZWSe&quot;&gt;&lt;div class=&quot;DHcWmd&quot;&gt;&lt;/div&gt;&lt;/div&gt;&lt;div class=&quot;oSioSc&quot;&gt;&lt;div id=&quot;tw-target&quot;&gt;&lt;div id=&quot;kAz1tf&quot; class=&quot;g9WsWb&quot;&gt;&lt;div class=&quot;tw-ta-container F0azHf tw-nfl&quot; id=&quot;tw-target-text-container&quot; tabindex=&quot;0&quot;&gt;&lt;pre class=&quot;tw-data-text tw-text-large tw-ta&quot; id=&quot;tw-target-text&quot; style=&quot;text-align: left&quot; dir=&quot;ltr&quot;&gt;&lt;span style=&quot;color: rgba(0 , 0 , 0 , 0) ; font-size: 0px&quot;&gt;%3CmxGraphModel%3E%3Croot%3E%3CmxCell%20id%3D%220%22%2F%3E%3CmxCell%20id%3D%221%22%20parent%3D%220%22%2F%3E%3CmxCell%20id%3D%222%22%20value%3D%22%26lt%3Bdiv%20class%3D%26quot%3BQmZWSe%26quot%3B%26gt%3B%26lt%3Bdiv%20class%3D%26quot%3BDHcWmd%26quot%3B%26gt%3B%26lt%3B%2Fdiv%26gt%3B%26lt%3B%2Fdiv%26gt%3B%26lt%3Bdiv%20class%3D%26quot%3BoSioSc%26quot%3B%26gt%3B%26lt%3Bdiv%20id%3D%26quot%3Btw-target%26quot%3B%26gt%3B%26lt%3Bdiv%20id%3D%26quot%3BkAz1tf%26quot%3B%20class%3D%26quot%3Bg9WsWb%26quot%3B%26gt%3B%26lt%3Bdiv%20class%3D%26quot%3Btw-ta-container%20F0azHf%20tw-nfl%26quot%3B%20id%3D%26quot%3Btw-target-text-container%26quot%3B%20tabindex%3D%26quot%3B0%26quot%3B%26gt%3B%26lt%3Bpre%20class%3D%26quot%3Btw-data-text%20tw-text-large%20tw-ta%26quot%3B%20id%3D%26quot%3Btw-target-text%26quot%3B%20style%3D%26quot%3Btext-align%3A%20left%26quot%3B%20dir%3D%26quot%3Bltr%26quot%3B%26gt%3B%26lt%3Bspan%20class%3D%26quot%3BY2IQFc%26quot%3B%20lang%3D%26quot%3Ben%26quot%3B%26gt%3BSee%20home%20page%26lt%3B%2Fspan%26gt%3B%26lt%3B%2Fpre%26gt%3B%26lt%3B%2Fdiv%26gt%3B%26lt%3B%2Fdiv%26gt%3B%26lt%3B%2Fdiv%26gt%3B%26lt%3B%2Fdiv%26gt%3B%22%20style%3D%22ellipse%3BwhiteSpace%3Dwrap%3Bhtml%3D1%3BfillColor%3Dnone%3B%22%20vertex%3D%221%22%20parent%3D%221%22%3E%3CmxGeometry%20x%3D%22354%22%20y%3D%22490%22%20width%3D%22120%22%20height%3D%2230%22%20as%3D%22geometry%22%2F%3E%3C%2FmxCell%3E%3C%2Froot%3E%3C%2FmxGraphModel%3E&lt;/span&gt;see a general map &lt;/pre&gt;&lt;pre class=&quot;tw-data-text tw-text-large tw-ta&quot; id=&quot;tw-target-text&quot; style=&quot;text-align: left&quot; dir=&quot;ltr&quot;&gt;of pollution&lt;br&gt;&lt;/pre&gt;&lt;/div&gt;&lt;/div&gt;&lt;/div&gt;&lt;/div&gt;" style="ellipse;whiteSpace=wrap;html=1;fillColor=none;" vertex="1" parent="1">
                    <mxGeometry x="290" y="555" width="190" height="65" as="geometry"/>
                </mxCell>
                <mxCell id="132" value="&lt;div class=&quot;QmZWSe&quot;&gt;&lt;div class=&quot;DHcWmd&quot;&gt;&lt;/div&gt;&lt;/div&gt;&lt;div class=&quot;oSioSc&quot;&gt;&lt;div id=&quot;tw-target&quot;&gt;&lt;div id=&quot;kAz1tf&quot; class=&quot;g9WsWb&quot;&gt;&lt;div class=&quot;tw-ta-container F0azHf tw-nfl&quot; id=&quot;tw-target-text-container&quot; tabindex=&quot;0&quot;&gt;&lt;pre class=&quot;tw-data-text tw-text-large tw-ta&quot; id=&quot;tw-target-text&quot; style=&quot;text-align: left&quot; dir=&quot;ltr&quot;&gt;Verify Password&lt;/pre&gt;&lt;/div&gt;&lt;/div&gt;&lt;/div&gt;&lt;/div&gt;" style="ellipse;whiteSpace=wrap;html=1;fillColor=none;" vertex="1" parent="1">
                    <mxGeometry x="470" y="160" width="120" height="40" as="geometry"/>
                </mxCell>
                <mxCell id="136" style="edgeStyle=none;html=1;entryX=0.582;entryY=1.034;entryDx=0;entryDy=0;entryPerimeter=0;dashed=1;endArrow=classic;endFill=1;exitX=0.186;exitY=0.894;exitDx=0;exitDy=0;exitPerimeter=0;" edge="1" parent="1" source="135">
                    <mxGeometry relative="1" as="geometry">
                        <mxPoint x="510.6684685013729" y="250.0241995766063" as="sourcePoint"/>
                        <mxPoint x="369.8399999999999" y="240" as="targetPoint"/>
                        <Array as="points">
                            <mxPoint x="430" y="268.64"/>
                        </Array>
                    </mxGeometry>
                </mxCell>
                <mxCell id="137" value="&amp;lt;&amp;lt;Extends&amp;gt;&amp;gt;" style="edgeLabel;html=1;align=center;verticalAlign=middle;resizable=0;points=[];" vertex="1" connectable="0" parent="136">
                    <mxGeometry x="-0.4914" y="1" relative="1" as="geometry">
                        <mxPoint x="-39" y="19" as="offset"/>
                    </mxGeometry>
                </mxCell>
                <mxCell id="135" value="&lt;div class=&quot;QmZWSe&quot;&gt;&lt;div class=&quot;DHcWmd&quot;&gt;&lt;/div&gt;&lt;/div&gt;&lt;div class=&quot;oSioSc&quot;&gt;&lt;div id=&quot;tw-target&quot;&gt;&lt;div id=&quot;kAz1tf&quot; class=&quot;g9WsWb&quot;&gt;&lt;div class=&quot;tw-ta-container F0azHf tw-nfl&quot; id=&quot;tw-target-text-container&quot; tabindex=&quot;0&quot;&gt;&lt;pre class=&quot;tw-data-text tw-text-large tw-ta&quot; id=&quot;tw-target-text&quot; style=&quot;text-align: left&quot; dir=&quot;ltr&quot;&gt;Display login error &lt;/pre&gt;&lt;/div&gt;&lt;/div&gt;&lt;/div&gt;&lt;/div&gt;" style="ellipse;whiteSpace=wrap;html=1;fillColor=none;" vertex="1" parent="1">
                    <mxGeometry x="455" y="210" width="170" height="50" as="geometry"/>
                </mxCell>
                <mxCell id="139" style="edgeStyle=none;html=1;dashed=1;endArrow=classic;endFill=1;" edge="1" parent="1" source="138" target="97">
                    <mxGeometry relative="1" as="geometry"/>
                </mxCell>
                <mxCell id="140" value="&amp;lt;&amp;lt;Include&amp;gt;&amp;gt;" style="edgeLabel;html=1;align=center;verticalAlign=middle;resizable=0;points=[];" vertex="1" connectable="0" parent="139">
                    <mxGeometry x="-0.3319" relative="1" as="geometry">
                        <mxPoint as="offset"/>
                    </mxGeometry>
                </mxCell>
                <mxCell id="138" value="&lt;div class=&quot;QmZWSe&quot;&gt;&lt;div class=&quot;DHcWmd&quot;&gt;&lt;/div&gt;&lt;/div&gt;&lt;div class=&quot;oSioSc&quot;&gt;&lt;div id=&quot;tw-target&quot;&gt;&lt;div id=&quot;kAz1tf&quot; class=&quot;g9WsWb&quot;&gt;&lt;div class=&quot;tw-ta-container F0azHf tw-nfl&quot; id=&quot;tw-target-text-container&quot; tabindex=&quot;0&quot;&gt;&lt;pre class=&quot;tw-data-text tw-text-large tw-ta&quot; id=&quot;tw-target-text&quot; style=&quot;text-align: left&quot; dir=&quot;ltr&quot;&gt;&lt;div class=&quot;QmZWSe&quot;&gt;&lt;div class=&quot;DHcWmd&quot;&gt;&lt;/div&gt;&lt;/div&gt;&lt;div class=&quot;oSioSc&quot;&gt;&lt;div id=&quot;tw-target&quot;&gt;&lt;div id=&quot;kAz1tf&quot; class=&quot;g9WsWb&quot;&gt;&lt;div class=&quot;tw-ta-container F0azHf tw-nfl&quot; id=&quot;tw-target-text-container&quot; tabindex=&quot;0&quot;&gt;&lt;pre class=&quot;tw-data-text tw-text-large tw-ta&quot; id=&quot;tw-target-text&quot; dir=&quot;ltr&quot;&gt;&lt;span class=&quot;Y2IQFc&quot; lang=&quot;en&quot;&gt;website not available&lt;/span&gt;&lt;/pre&gt;&lt;/div&gt;&lt;/div&gt;&lt;/div&gt;&lt;/div&gt;&lt;/pre&gt;&lt;/div&gt;&lt;/div&gt;&lt;/div&gt;&lt;/div&gt;" style="ellipse;whiteSpace=wrap;html=1;fillColor=none;" vertex="1" parent="1">
                    <mxGeometry x="430" y="480" width="160" height="50" as="geometry"/>
                </mxCell>
                <mxCell id="141" value="&lt;div class=&quot;QmZWSe&quot;&gt;&lt;div class=&quot;DHcWmd&quot;&gt;&lt;/div&gt;&lt;/div&gt;&lt;div class=&quot;oSioSc&quot;&gt;&lt;div id=&quot;tw-target&quot;&gt;&lt;div id=&quot;kAz1tf&quot; class=&quot;g9WsWb&quot;&gt;&lt;div class=&quot;tw-ta-container F0azHf tw-nfl&quot; id=&quot;tw-target-text-container&quot; tabindex=&quot;0&quot;&gt;&lt;pre class=&quot;tw-data-text tw-text-large tw-ta&quot; id=&quot;tw-target-text&quot; style=&quot;text-align: left&quot; dir=&quot;ltr&quot;&gt;&lt;pre class=&quot;tw-data-text tw-text-large tw-ta&quot; id=&quot;tw-target-text&quot; dir=&quot;ltr&quot;&gt;&lt;pre class=&quot;tw-data-text tw-text-large tw-ta&quot; id=&quot;tw-target-text&quot; dir=&quot;ltr&quot;&gt;&lt;span class=&quot;Y2IQFc&quot; lang=&quot;en&quot;&gt;Notify that the incident &lt;/span&gt;&lt;/pre&gt;&lt;pre class=&quot;tw-data-text tw-text-large tw-ta&quot; id=&quot;tw-target-text&quot; dir=&quot;ltr&quot;&gt;&lt;span class=&quot;Y2IQFc&quot; lang=&quot;en&quot;&gt;has been received&lt;/span&gt;&lt;/pre&gt;&lt;/pre&gt;&lt;div class=&quot;QmZWSe&quot;&gt;&lt;div class=&quot;DHcWmd&quot;&gt;&lt;/div&gt;&lt;/div&gt;&lt;/pre&gt;&lt;/div&gt;&lt;/div&gt;&lt;/div&gt;&lt;/div&gt;" style="ellipse;whiteSpace=wrap;html=1;fillColor=none;" vertex="1" parent="1">
                    <mxGeometry x="455" y="380" width="205" height="80" as="geometry"/>
                </mxCell>
            </root>
        </mxGraphModel>
    </diagram>
</mxfile>